<svg xmlns="http://www.w3.org/2000/svg" viewBox="0 0 30 20"><rect width="30" height="20" fill="#de2910"/><g fill="#ffde00"><polygon points="5,3.3 5.9,5.7 8.5,5.7 6.3,7.3 7.2,9.7 5,8 2.8,9.7 3.7,7.3 1.5,5.7 4.1,5.7"/><polygon points="10.5,1.5 10.8,2.4 11.7,2.4 10.9,3 11.3,3.9 10.5,3.3 9.7,3.9 10.1,3 9.3,2.4 10.2,2.4"/><polygon points="12.5,4 12.8,4.9 13.7,4.9 12.9,5.5 13.3,6.4 12.5,5.8 11.7,6.4 12.1,5.5 11.3,4.9 12.2,4.9"/><polygon points="12.5,7.5 12.8,8.4 13.7,8.4 12.9,9 13.3,9.9 12.5,9.3 11.7,9.9 12.1,9 11.3,8.4 12.2,8.4"/><polygon points="10.5,10 10.8,10.9 11.7,10.9 10.9,11.5 11.3,12.4 10.5,11.8 9.7,12.4 10.1,11.5 9.3,10.9 10.2,10.9"/></g></svg>